<svg width="24" height="24" viewBox="0 0 24 24" fill="none" xmlns="http://www.w3.org/2000/svg">
<path d="M12 1.67188C13.5 1.67188 14.9062 1.95312 16.2188 2.51562C17.5312 3.07812 18.6797 3.85156 19.6641 4.83594C20.6484 5.82031 21.4219 6.96875 21.9844 8.28125C22.5469 9.59375 22.8281 11 22.8281 12.5C22.8281 14 22.5469 15.4062 21.9844 16.7188C21.4219 18.0312 20.6484 19.1797 19.6641 20.1641C18.6797 21.1484 17.5312 21.9219 16.2188 22.4844C14.9062 23.0469 13.5 23.3281 12 23.3281C10.5 23.3281 9.09375 23.0469 7.78125 22.4844C6.46875 21.9219 5.32031 21.1484 4.33594 20.1641C3.35156 19.1797 2.57812 18.0312 2.01562 16.7188C1.45312 15.4062 1.17188 14 1.17188 12.5C1.17188 11 1.45312 9.59375 2.01562 8.28125C2.57812 6.96875 3.35156 5.82031 4.33594 4.83594C5.32031 3.85156 6.46875 3.07812 7.78125 2.51562C9.09375 1.95312 10.5 1.67188 12 1.67188ZM12 10.6719C11.7656 10.6719 11.5625 10.7578 11.3906 10.9297C11.2344 11.0859 11.1562 11.2734 11.1562 11.4922V17.8438C11.1562 18.0625 11.2344 18.2578 11.3906 18.4297C11.5625 18.5859 11.7656 18.6641 12 18.6641C12.2344 18.6641 12.4297 18.5859 12.5859 18.4297C12.7578 18.2578 12.8438 18.0625 12.8438 17.8438V11.4922C12.8438 11.2734 12.7578 11.0859 12.5859 10.9297C12.4297 10.7578 12.2344 10.6719 12 10.6719ZM12 6.82812C11.6719 6.82812 11.3906 6.94531 11.1562 7.17969C10.9375 7.39844 10.8281 7.67188 10.8281 8C10.8281 8.32812 10.9375 8.60938 11.1562 8.84375C11.3906 9.0625 11.6719 9.17188 12 9.17188C12.3281 9.17188 12.6016 9.0625 12.8203 8.84375C13.0547 8.60938 13.1719 8.32812 13.1719 8C13.1719 7.67188 13.0547 7.39844 12.8203 7.17969C12.6016 6.94531 12.3281 6.82812 12 6.82812Z" fill="black"/>
</svg>
