<svg width="24" height="24" viewBox="0 0 24 24" fill="none" xmlns="http://www.w3.org/2000/svg">
<path d="M16.125 3.00781C16.9688 3.00781 17.7578 3.17969 18.4922 3.52344C19.2266 3.86719 19.8672 4.34375 20.4141 4.95312C20.9609 5.54688 21.3906 6.24219 21.7031 7.03906C22.0156 7.82031 22.1719 8.66406 22.1719 9.57031C22.1719 10.6328 21.9766 11.5547 21.5859 12.3359C21.2109 13.1016 20.8594 13.7422 20.5312 14.2578L20.5078 14.2812C20.2266 14.7344 19.8281 15.2656 19.3125 15.875C18.8125 16.4844 18.2344 17.1172 17.5781 17.7734C16.9375 18.4141 16.25 19.0469 15.5156 19.6719C14.7656 20.3125 14.0156 20.875 13.2656 21.3594C13.1094 21.4531 12.9688 21.5391 12.8438 21.6172C12.7188 21.6797 12.5781 21.7344 12.4219 21.7812C12.2969 21.7969 12.1562 21.8047 12 21.8047C11.8438 21.8047 11.7031 21.7969 11.5781 21.7812C11.4219 21.7344 11.2812 21.6797 11.1562 21.6172C11.0312 21.5391 10.8906 21.4531 10.7344 21.3594C9.98438 20.875 9.23438 20.3125 8.48438 19.6719C7.75 19.0469 7.05469 18.4141 6.39844 17.7734C5.75781 17.1172 5.1875 16.4844 4.6875 15.875C4.17188 15.2656 3.77344 14.7344 3.49219 14.2812L3.46875 14.2578C3.14062 13.7422 2.78125 13.1016 2.39062 12.3359C2.01562 11.5547 1.82812 10.6328 1.82812 9.57031C1.82812 8.66406 1.98438 7.82031 2.29688 7.03906C2.60938 6.24219 3.03906 5.54688 3.58594 4.95312C4.13281 4.34375 4.77344 3.86719 5.50781 3.52344C6.24219 3.17969 7.03125 3.00781 7.875 3.00781C8.76562 3.00781 9.54688 3.24219 10.2188 3.71094C10.9062 4.16406 11.5 4.75781 12 5.49219C12.5 4.75781 13.0859 4.16406 13.7578 3.71094C14.4453 3.24219 15.2344 3.00781 16.125 3.00781Z" fill="black"/>
</svg>
