<svg width="24" height="24" viewBox="0 0 24 24" fill="none" xmlns="http://www.w3.org/2000/svg">
<path d="M12.3281 7.10938C12.4531 6.95313 12.6094 6.91406 12.7969 6.99219C13 7.07031 13.1016 7.21094 13.1016 7.41406L12.8672 11.0234H15.4922C15.6641 11.0234 15.7891 11.1016 15.8672 11.2578C15.9609 11.4141 15.9531 11.5625 15.8438 11.7031L11.6953 17.8438C11.5703 18.0312 11.4062 18.0938 11.2031 18.0312C11 17.9531 10.9062 17.8047 10.9219 17.5859L11.1328 13.9766H8.50781C8.33594 13.9766 8.20312 13.8984 8.10938 13.7422C8.03125 13.5859 8.04688 13.4375 8.15625 13.2969L12.3281 7.10938ZM15.0703 1.67188C15.4297 1.67188 15.7578 1.67188 16.0547 1.67188C16.3672 1.67188 16.6406 1.67969 16.875 1.69531C17.125 1.72656 17.3594 1.76562 17.5781 1.8125C17.8125 1.85938 18.0391 1.9375 18.2578 2.04688C18.5859 2.21875 18.875 2.4375 19.125 2.70312C19.3906 2.95312 19.6094 3.24219 19.7812 3.57031C19.8906 3.78906 19.9688 4.01562 20.0156 4.25C20.0625 4.46875 20.1016 4.70313 20.1328 4.95312C20.1484 5.1875 20.1562 5.46094 20.1562 5.77344C20.1562 6.07031 20.1562 6.39844 20.1562 6.75781V18.2422C20.1562 18.6016 20.1562 18.9375 20.1562 19.25C20.1562 19.5469 20.1484 19.8125 20.1328 20.0469C20.1016 20.2969 20.0625 20.5391 20.0156 20.7734C19.9688 20.9922 19.8906 21.2109 19.7812 21.4297C19.6094 21.7578 19.3906 22.0547 19.125 22.3203C18.875 22.5703 18.5859 22.7812 18.2578 22.9531C18.0391 23.0625 17.8125 23.1406 17.5781 23.1875C17.3594 23.2344 17.125 23.2734 16.875 23.3047C16.6406 23.3203 16.3672 23.3281 16.0547 23.3281C15.7578 23.3281 15.4297 23.3281 15.0703 23.3281H8.92969C8.57031 23.3281 8.23438 23.3281 7.92188 23.3281C7.625 23.3281 7.35938 23.3203 7.125 23.3047C6.875 23.2734 6.63281 23.2344 6.39844 23.1875C6.17969 23.1406 5.96094 23.0625 5.74219 22.9531C5.41406 22.7812 5.11719 22.5703 4.85156 22.3203C4.60156 22.0547 4.39062 21.7578 4.21875 21.4297C4.10938 21.2109 4.03125 20.9922 3.98438 20.7734C3.9375 20.5391 3.89844 20.2969 3.86719 20.0469C3.85156 19.8125 3.84375 19.5469 3.84375 19.25C3.84375 18.9375 3.84375 18.6016 3.84375 18.2422V6.75781C3.84375 6.39844 3.84375 6.07031 3.84375 5.77344C3.84375 5.46094 3.85156 5.1875 3.86719 4.95312C3.89844 4.70313 3.9375 4.46875 3.98438 4.25C4.03125 4.01562 4.10938 3.78906 4.21875 3.57031C4.39062 3.24219 4.60156 2.95312 4.85156 2.70312C5.11719 2.4375 5.41406 2.21875 5.74219 2.04688C5.96094 1.9375 6.17969 1.85938 6.39844 1.8125C6.63281 1.76562 6.875 1.72656 7.125 1.69531C7.35938 1.67969 7.625 1.67188 7.92188 1.67188C8.23438 1.67188 8.57031 1.67188 8.92969 1.67188H15.0703ZM8.92969 3.33594C8.55469 3.33594 8.22656 3.33594 7.94531 3.33594C7.67969 3.33594 7.44531 3.34375 7.24219 3.35938C7.05469 3.375 6.89844 3.39844 6.77344 3.42969C6.66406 3.46094 6.57031 3.49219 6.49219 3.52344C6.32031 3.61719 6.16406 3.73438 6.02344 3.875C5.89844 4.01562 5.78906 4.17187 5.69531 4.34375C5.66406 4.40625 5.63281 4.5 5.60156 4.625C5.57031 4.73437 5.54688 4.89063 5.53125 5.09375C5.51562 5.28125 5.50781 5.51562 5.50781 5.79688C5.50781 6.0625 5.50781 6.38281 5.50781 6.75781V18.2422C5.50781 18.6172 5.50781 18.9453 5.50781 19.2266C5.50781 19.4922 5.51562 19.7188 5.53125 19.9062C5.54688 20.1094 5.57031 20.2734 5.60156 20.3984C5.63281 20.5078 5.66406 20.5938 5.69531 20.6562C5.78906 20.8281 5.89844 20.9844 6.02344 21.125C6.16406 21.2656 6.32031 21.3828 6.49219 21.4766C6.57031 21.5078 6.66406 21.5391 6.77344 21.5703C6.89844 21.6016 7.05469 21.625 7.24219 21.6406C7.44531 21.6562 7.67969 21.6641 7.94531 21.6641C8.22656 21.6641 8.55469 21.6641 8.92969 21.6641H15.0703C15.4453 21.6641 15.7656 21.6641 16.0312 21.6641C16.3125 21.6641 16.5547 21.6562 16.7578 21.6406C16.9453 21.625 17.0938 21.6016 17.2031 21.5703C17.3281 21.5391 17.4297 21.5078 17.5078 21.4766C17.6797 21.3828 17.8281 21.2656 17.9531 21.125C18.0938 20.9844 18.2109 20.8281 18.3047 20.6562C18.3359 20.5938 18.3672 20.5078 18.3984 20.3984C18.4297 20.2734 18.4531 20.1094 18.4688 19.9062C18.4844 19.7188 18.4922 19.4922 18.4922 19.2266C18.4922 18.9453 18.4922 18.6172 18.4922 18.2422V6.75781C18.4922 6.38281 18.4922 6.0625 18.4922 5.79688C18.4922 5.51562 18.4844 5.28125 18.4688 5.09375C18.4531 4.89063 18.4297 4.73437 18.3984 4.625C18.3672 4.5 18.3359 4.40625 18.3047 4.34375C18.2109 4.17187 18.0938 4.01562 17.9531 3.875C17.8281 3.73438 17.6797 3.61719 17.5078 3.52344C17.4297 3.49219 17.3281 3.46094 17.2031 3.42969C17.0938 3.39844 16.9453 3.375 16.7578 3.35938C16.5547 3.34375 16.3125 3.33594 16.0312 3.33594C15.7656 3.33594 15.4453 3.33594 15.0703 3.33594H8.92969Z" fill="black"/>
</svg>
