<svg width="24" height="24" viewBox="0 0 24 24" fill="none" xmlns="http://www.w3.org/2000/svg">
<path d="M17.6719 21.125C16.8438 21.125 16.1328 20.8359 15.5391 20.2578C14.9609 19.6641 14.6719 18.9531 14.6719 18.125C14.6719 18 14.6797 17.8828 14.6953 17.7734C14.7109 17.6484 14.7266 17.5312 14.7422 17.4219L8.55469 14.2578C8.24219 14.6328 7.86719 14.9297 7.42969 15.1484C6.99219 15.3516 6.51562 15.4531 6 15.4531C5.07812 15.4531 4.28906 15.1328 3.63281 14.4922C2.99219 13.8359 2.67188 13.0469 2.67188 12.125C2.67188 11.2031 2.99219 10.4219 3.63281 9.78125C4.28906 9.125 5.07812 8.79688 6 8.79688C6.51562 8.79688 6.99219 8.90625 7.42969 9.125C7.86719 9.32812 8.24219 9.61719 8.55469 9.99219L14.7422 6.82812C14.7266 6.71875 14.7109 6.60937 14.6953 6.5C14.6797 6.375 14.6719 6.25 14.6719 6.125C14.6719 5.29687 14.9609 4.59375 15.5391 4.01562C16.1328 3.42187 16.8438 3.125 17.6719 3.125C18.5 3.125 19.2031 3.42187 19.7812 4.01562C20.375 4.59375 20.6719 5.29687 20.6719 6.125C20.6719 6.95313 20.375 7.66406 19.7812 8.25781C19.2031 8.83594 18.5 9.125 17.6719 9.125C17.2656 9.125 16.8828 9.05469 16.5234 8.91406C16.1641 8.75781 15.8516 8.54688 15.5859 8.28125C15.5703 8.28125 15.5625 8.28125 15.5625 8.28125C15.5625 8.28125 15.5547 8.28125 15.5391 8.28125L9.28125 11.4922C9.29688 11.6016 9.30469 11.7109 9.30469 11.8203C9.32031 11.9141 9.32812 12.0156 9.32812 12.125C9.32812 12.2344 9.32031 12.3438 9.30469 12.4531C9.30469 12.5625 9.29688 12.6641 9.28125 12.7578L15.5391 15.9688C15.5547 15.9688 15.5625 15.9688 15.5625 15.9688C15.5625 15.9688 15.5703 15.9688 15.5859 15.9688C15.8516 15.7031 16.1641 15.5 16.5234 15.3594C16.8828 15.2031 17.2656 15.125 17.6719 15.125C18.5 15.125 19.2031 15.4219 19.7812 16.0156C20.375 16.5938 20.6719 17.2969 20.6719 18.125C20.6719 18.9531 20.375 19.6641 19.7812 20.2578C19.2031 20.8359 18.5 21.125 17.6719 21.125Z" fill="black"/>
</svg>
