<svg width="24" height="24" viewBox="0 0 24 24" fill="none" xmlns="http://www.w3.org/2000/svg">
<path d="M12.1641 3.82812C13.3672 3.82812 14.4922 4.07812 15.5391 4.57812C16.5859 5.0625 17.4844 5.71875 18.2344 6.54688C17.1719 6.64062 16.1797 6.92188 15.2578 7.39062C14.3359 7.85938 13.5312 8.46875 12.8438 9.21875C12.1719 9.95312 11.6406 10.8047 11.25 11.7734C10.8594 12.7266 10.6641 13.75 10.6641 14.8438C10.6641 15.1094 10.7578 15.3438 10.9453 15.5469C11.1484 15.7344 11.3906 15.8281 11.6719 15.8281C11.9375 15.8281 12.1641 15.7344 12.3516 15.5469C12.5547 15.3438 12.6562 15.1094 12.6562 14.8438C12.6562 13.9688 12.8281 13.1406 13.1719 12.3594C13.5 11.5938 13.9531 10.9297 14.5312 10.3672C15.1094 9.78906 15.7812 9.33594 16.5469 9.00781C17.3281 8.66406 18.1562 8.49219 19.0312 8.49219C19.2656 8.49219 19.5 8.50781 19.7344 8.53906C19.9844 8.57031 20.2188 8.60938 20.4375 8.65625C20.4688 8.65625 20.4922 8.66406 20.5078 8.67969C20.5391 8.67969 20.5625 8.67969 20.5781 8.67969C21.5938 9.24219 22.4141 10.0391 23.0391 11.0703C23.6797 12.1016 24 13.2422 24 14.4922C24 15.4141 23.8281 16.2812 23.4844 17.0938C23.125 17.9062 22.6406 18.6172 22.0312 19.2266C21.4375 19.8203 20.7344 20.2891 19.9219 20.6328C19.1094 20.9922 18.25 21.1719 17.3438 21.1719C17.3125 21.1719 17.2891 21.1719 17.2734 21.1719C17.2578 21.1719 17.2422 21.1719 17.2266 21.1719C17.2109 21.1719 17.1953 21.1719 17.1797 21.1719C17.1797 21.1719 17.1719 21.1719 17.1562 21.1719H5.67188C5.65625 21.1719 5.64062 21.1719 5.625 21.1719C5.625 21.1719 5.61719 21.1719 5.60156 21.1719C5.58594 21.1719 5.57031 21.1719 5.55469 21.1719C5.53906 21.1719 5.52344 21.1719 5.50781 21.1719C4.74219 21.1719 4.02344 21.0234 3.35156 20.7266C2.69531 20.4453 2.11719 20.0547 1.61719 19.5547C1.11719 19.0547 0.71875 18.4688 0.421875 17.7969C0.140625 17.1406 0 16.4297 0 15.6641C0 15.0234 0.101562 14.4141 0.304688 13.8359C0.523438 13.2422 0.8125 12.7109 1.17188 12.2422C1.54688 11.7734 1.99219 11.375 2.50781 11.0469C3.02344 10.7188 3.57812 10.4766 4.17188 10.3203C4.35938 9.39844 4.70312 8.53906 5.20312 7.74219C5.6875 6.96094 6.28125 6.28125 6.98438 5.70312C7.6875 5.10937 8.48438 4.64844 9.375 4.32031C10.25 3.99219 11.1797 3.82812 12.1641 3.82812Z" fill="black"/>
</svg>
