<svg width="24" height="25" viewBox="0 0 24 25" fill="none" xmlns="http://www.w3.org/2000/svg">
<path d="M12 20.8438C12.2812 20.8438 12.5156 20.9453 12.7031 21.1484C12.9062 21.3359 13.0078 21.5625 13.0078 21.8281V23.1641C13.0078 23.4453 12.9062 23.6797 12.7031 23.8672C12.5156 24.0703 12.2812 24.1719 12 24.1719C11.7188 24.1719 11.4766 24.0703 11.2734 23.8672C11.0859 23.6797 10.9922 23.4453 10.9922 23.1641V21.8281C10.9922 21.5625 11.0859 21.3359 11.2734 21.1484C11.4766 20.9453 11.7188 20.8438 12 20.8438ZM4.6875 18.3828C4.89062 18.1953 5.125 18.1016 5.39062 18.1016C5.67188 18.1016 5.91406 18.1953 6.11719 18.3828C6.30469 18.5859 6.39844 18.8281 6.39844 19.1094C6.39844 19.375 6.30469 19.6094 6.11719 19.8125L5.15625 20.75C4.96875 20.9375 4.73438 21.0312 4.45312 21.0312C4.1875 21.0312 3.95312 20.9375 3.75 20.75C3.5625 20.5469 3.46875 20.3125 3.46875 20.0469C3.46875 19.7656 3.5625 19.5312 3.75 19.3438L4.6875 18.3828ZM17.8828 18.3828C18.0859 18.1953 18.3203 18.1016 18.5859 18.1016C18.8672 18.1016 19.1094 18.1953 19.3125 18.3828L20.25 19.3438C20.4375 19.5312 20.5312 19.7656 20.5312 20.0469C20.5312 20.3125 20.4375 20.5469 20.25 20.75C20.0469 20.9375 19.8047 21.0312 19.5234 21.0312C19.2578 21.0312 19.0312 20.9375 18.8438 20.75L17.8828 19.8125C17.6953 19.6094 17.6016 19.375 17.6016 19.1094C17.6016 18.8281 17.6953 18.5859 17.8828 18.3828ZM12 6.00781C12.8906 6.00781 13.7344 6.17188 14.5312 6.5C15.3125 6.84375 16 7.3125 16.5938 7.90625C17.1875 8.5 17.6562 9.1875 18 9.96875C18.3281 10.7656 18.4922 11.6094 18.4922 12.5C18.4922 13.3906 18.3281 14.2344 18 15.0312C17.6562 15.8125 17.1875 16.5 16.5938 17.0938C16 17.6875 15.3125 18.1562 14.5312 18.5C13.7344 18.8281 12.8906 18.9922 12 18.9922C11.1094 18.9922 10.2656 18.8281 9.46875 18.5C8.6875 18.1562 8 17.6875 7.40625 17.0938C6.8125 16.5 6.34375 15.8125 6 15.0312C5.67188 14.2344 5.50781 13.3906 5.50781 12.5C5.50781 11.6094 5.67188 10.7656 6 9.96875C6.34375 9.1875 6.8125 8.5 7.40625 7.90625C8 7.3125 8.6875 6.84375 9.46875 6.5C10.2656 6.17188 11.1094 6.00781 12 6.00781ZM2.67188 11.4922C2.9375 11.4922 3.16406 11.5938 3.35156 11.7969C3.55469 11.9844 3.65625 12.2188 3.65625 12.5C3.65625 12.7812 3.55469 13.0234 3.35156 13.2266C3.16406 13.4141 2.9375 13.5078 2.67188 13.5078H1.33594C1.05469 13.5078 0.8125 13.4141 0.609375 13.2266C0.421875 13.0234 0.328125 12.7812 0.328125 12.5C0.328125 12.2188 0.421875 11.9844 0.609375 11.7969C0.8125 11.5938 1.05469 11.4922 1.33594 11.4922H2.67188ZM22.6641 11.4922C22.9453 11.4922 23.1797 11.5938 23.3672 11.7969C23.5703 11.9844 23.6719 12.2188 23.6719 12.5C23.6719 12.7812 23.5703 13.0234 23.3672 13.2266C23.1797 13.4141 22.9453 13.5078 22.6641 13.5078H21.3281C21.0625 13.5078 20.8281 13.4141 20.625 13.2266C20.4375 13.0234 20.3438 12.7812 20.3438 12.5C20.3438 12.2188 20.4375 11.9844 20.625 11.7969C20.8281 11.5938 21.0625 11.4922 21.3281 11.4922H22.6641ZM18.8438 4.25C19.0312 4.0625 19.2578 3.96875 19.5234 3.96875C19.8047 3.96875 20.0469 4.0625 20.25 4.25C20.4375 4.45312 20.5312 4.69531 20.5312 4.97656C20.5312 5.24219 20.4375 5.46875 20.25 5.65625L19.3125 6.61719C19.1094 6.80469 18.8672 6.89844 18.5859 6.89844C18.3203 6.89844 18.0859 6.80469 17.8828 6.61719C17.6953 6.41406 17.6016 6.17969 17.6016 5.91406C17.6016 5.63281 17.6953 5.39062 17.8828 5.1875L18.8438 4.25ZM3.75 4.25C3.95312 4.0625 4.1875 3.96875 4.45312 3.96875C4.73438 3.96875 4.96875 4.0625 5.15625 4.25L6.11719 5.1875C6.30469 5.39062 6.39844 5.63281 6.39844 5.91406C6.39844 6.17969 6.30469 6.41406 6.11719 6.61719C5.91406 6.80469 5.67188 6.89844 5.39062 6.89844C5.125 6.89844 4.89062 6.80469 4.6875 6.61719L3.75 5.65625C3.5625 5.46875 3.46875 5.23438 3.46875 4.95312C3.46875 4.67188 3.5625 4.4375 3.75 4.25ZM12 0.828125C12.2812 0.828125 12.5156 0.929688 12.7031 1.13281C12.9062 1.32031 13.0078 1.55469 13.0078 1.83594V3.17188C13.0078 3.4375 12.9062 3.67188 12.7031 3.875C12.5156 4.0625 12.2812 4.15625 12 4.15625C11.7188 4.15625 11.4766 4.0625 11.2734 3.875C11.0859 3.67188 10.9922 3.4375 10.9922 3.17188V1.83594C10.9922 1.55469 11.0859 1.32031 11.2734 1.13281C11.4766 0.929688 11.7188 0.828125 12 0.828125Z" fill="black"/>
</svg>
