<svg width="24" height="24" viewBox="0 0 24 24" fill="none" xmlns="http://www.w3.org/2000/svg">
<path d="M5.69531 18.9922C5.85156 18.8203 6.03906 18.7266 6.25781 18.7109C6.49219 18.6953 6.69531 18.7656 6.86719 18.9219C7.03906 19.0781 7.13281 19.2734 7.14844 19.5078C7.16406 19.7266 7.09375 19.9219 6.9375 20.0938L5.67188 21.5469C5.51562 21.7344 5.32031 21.8359 5.08594 21.8516C4.86719 21.8516 4.67188 21.7812 4.5 21.6406C4.3125 21.4844 4.21094 21.2969 4.19531 21.0781C4.19531 20.8438 4.26562 20.6406 4.40625 20.4688L5.69531 18.9922ZM11.3672 18.9922C11.5234 18.8203 11.7109 18.7266 11.9297 18.7109C12.1641 18.6953 12.3672 18.7656 12.5391 18.9219C12.7266 19.0781 12.8203 19.2734 12.8203 19.5078C12.8359 19.7266 12.7734 19.9219 12.6328 20.0938L11.3438 21.5469C11.1875 21.7344 10.9922 21.8359 10.7578 21.8516C10.5391 21.8516 10.3438 21.7812 10.1719 21.6406C10 21.4844 9.90625 21.2969 9.89062 21.0781C9.875 20.8438 9.94531 20.6406 10.1016 20.4688L11.3672 18.9922ZM16.6875 18.9922C16.8438 18.8203 17.0312 18.7266 17.25 18.7109C17.4844 18.6953 17.6875 18.7656 17.8594 18.9219C18.0312 19.0781 18.125 19.2734 18.1406 19.5078C18.1562 19.7266 18.0938 19.9219 17.9531 20.0938L16.6641 21.5469C16.5078 21.7344 16.3125 21.8359 16.0781 21.8516C15.8594 21.8516 15.6641 21.7812 15.4922 21.6406C15.3203 21.4844 15.2266 21.2969 15.2109 21.0781C15.1953 20.8438 15.2578 20.6406 15.3984 20.4688L16.6875 18.9922ZM15.2578 2.91406C16.2578 2.91406 17.2031 3.10156 18.0938 3.47656C18.9844 3.85156 19.7578 4.36719 20.4141 5.02344C21.0703 5.66406 21.5938 6.41406 21.9844 7.27344C22.3594 8.14844 22.5469 9.07812 22.5469 10.0625C22.5469 11.0625 22.3594 11.9922 21.9844 12.8516C21.5938 13.7266 21.0703 14.4922 20.4141 15.1484C19.7578 15.7891 18.9844 16.2969 18.0938 16.6719C17.2031 17.0312 16.2578 17.2109 15.2578 17.2109H7.24219C6.44531 17.2109 5.69531 17.0625 4.99219 16.7656C4.28906 16.4688 3.67188 16.0703 3.14062 15.5703C2.625 15.0547 2.21094 14.4453 1.89844 13.7422C1.60156 13.0547 1.45312 12.3203 1.45312 11.5391C1.45312 10.7422 1.60156 10 1.89844 9.3125C2.21094 8.60938 2.625 8.00781 3.14062 7.50781C3.67188 6.99219 4.28906 6.58594 4.99219 6.28906C5.69531 5.99219 6.44531 5.84375 7.24219 5.84375C7.57031 5.84375 7.89062 5.875 8.20312 5.9375C8.53125 5.98438 8.84375 6.05469 9.14062 6.14844C9.79688 5.17969 10.6641 4.39844 11.7422 3.80469C12.8203 3.21094 13.9922 2.91406 15.2578 2.91406Z" fill="black"/>
</svg>
