<svg width="24" height="24" viewBox="0 0 24 24" fill="none" xmlns="http://www.w3.org/2000/svg">
<path d="M12.5625 1.8125C12.6719 1.8125 12.7812 1.82031 12.8906 1.83594C13 1.83594 13.1094 1.85156 13.2188 1.88281C13.3281 1.91406 13.4375 1.95312 13.5469 2C13.6562 2.04688 13.7578 2.10156 13.8516 2.16406C13.9766 2.24219 14.0859 2.33594 14.1797 2.44531C14.2891 2.53906 14.3906 2.64063 14.4844 2.75L19.3828 8.04688C19.4766 8.14062 19.5625 8.24219 19.6406 8.35156C19.7344 8.44531 19.8125 8.54688 19.875 8.65625C19.9375 8.75 19.9844 8.85156 20.0156 8.96094C20.0625 9.05469 20.0938 9.14844 20.1094 9.24219C20.1406 9.35156 20.1562 9.45312 20.1562 9.54688C20.1562 9.64062 20.1562 9.73438 20.1562 9.82812V18.1484C20.1562 18.5078 20.1562 18.8359 20.1562 19.1328C20.1562 19.4297 20.1484 19.7031 20.1328 19.9531C20.1172 20.1875 20.0781 20.4219 20.0156 20.6562C19.9688 20.875 19.8906 21.0859 19.7812 21.2891C19.625 21.6172 19.4141 21.9141 19.1484 22.1797C18.8984 22.4297 18.6094 22.6406 18.2812 22.8125C18.0781 22.9219 17.8594 23 17.625 23.0469C17.4062 23.0938 17.1719 23.125 16.9219 23.1406C16.6875 23.1719 16.4219 23.1875 16.125 23.1875C15.8281 23.1875 15.5 23.1875 15.1406 23.1875H9.09375C8.73438 23.1875 8.40625 23.1875 8.10938 23.1875C7.8125 23.1875 7.53906 23.1719 7.28906 23.1406C7.05469 23.125 6.82031 23.0938 6.58594 23.0469C6.36719 23 6.15625 22.9219 5.95312 22.8125C5.625 22.6406 5.32812 22.4297 5.0625 22.1797C4.8125 21.9141 4.60156 21.6172 4.42969 21.2891C4.32031 21.0859 4.24219 20.875 4.19531 20.6562C4.14844 20.4219 4.11719 20.1875 4.10156 19.9531C4.08594 19.7031 4.07031 19.4297 4.05469 19.1328C4.05469 18.8359 4.05469 18.5078 4.05469 18.1484V6.85156C4.05469 6.49219 4.05469 6.16406 4.05469 5.86719C4.07031 5.57031 4.08594 5.29687 4.10156 5.04688C4.11719 4.8125 4.14844 4.58594 4.19531 4.36719C4.24219 4.13281 4.32031 3.91406 4.42969 3.71094C4.60156 3.38281 4.8125 3.09375 5.0625 2.84375C5.32812 2.57812 5.625 2.35938 5.95312 2.1875C6.15625 2.07813 6.36719 2 6.58594 1.95312C6.82031 1.90625 7.05469 1.875 7.28906 1.85938C7.53906 1.82812 7.8125 1.8125 8.10938 1.8125C8.40625 1.8125 8.73438 1.8125 9.09375 1.8125H12.5625ZM6.84375 3.875C6.64062 3.875 6.46875 3.94531 6.32812 4.08594C6.1875 4.22656 6.11719 4.39844 6.11719 4.60156V7.90625C6.11719 8.10938 6.1875 8.28125 6.32812 8.42188C6.46875 8.5625 6.64062 8.63281 6.84375 8.63281C7.04688 8.63281 7.21875 8.5625 7.35938 8.42188C7.51562 8.28125 7.59375 8.10938 7.59375 7.90625V4.60156C7.59375 4.39844 7.51562 4.22656 7.35938 4.08594C7.21875 3.94531 7.04688 3.875 6.84375 3.875ZM9.49219 3.875C9.28906 3.875 9.10938 3.94531 8.95312 4.08594C8.8125 4.22656 8.74219 4.39844 8.74219 4.60156V7.90625C8.74219 8.10938 8.8125 8.28125 8.95312 8.42188C9.10938 8.5625 9.28906 8.63281 9.49219 8.63281C9.69531 8.63281 9.86719 8.5625 10.0078 8.42188C10.1484 8.28125 10.2188 8.10938 10.2188 7.90625V4.60156C10.2188 4.39844 10.1484 4.22656 10.0078 4.08594C9.86719 3.94531 9.69531 3.875 9.49219 3.875ZM12.1172 3.875C11.9141 3.875 11.7344 3.94531 11.5781 4.08594C11.4375 4.22656 11.3672 4.39844 11.3672 4.60156V7.90625C11.3672 8.10938 11.4375 8.28125 11.5781 8.42188C11.7344 8.5625 11.9141 8.63281 12.1172 8.63281C12.3203 8.63281 12.4922 8.5625 12.6328 8.42188C12.7734 8.28125 12.8438 8.10938 12.8438 7.90625V4.60156C12.8438 4.39844 12.7734 4.22656 12.6328 4.08594C12.4922 3.94531 12.3203 3.875 12.1172 3.875Z" fill="black"/>
</svg>
