<svg width="24" height="24" viewBox="0 0 24 24" fill="none" xmlns="http://www.w3.org/2000/svg">
<path d="M11.6953 1.76562C11.8047 1.75 11.9062 1.74219 12 1.74219C12.0938 1.74219 12.1953 1.75 12.3047 1.76562C12.4141 1.78125 12.5234 1.8125 12.6328 1.85938C12.7578 1.89063 12.875 1.92969 12.9844 1.97656L19.6875 4.34375C19.9219 4.42188 20.1406 4.50781 20.3438 4.60156C20.5625 4.67969 20.75 4.78906 20.9062 4.92969C21.0469 5.05469 21.1641 5.1875 21.2578 5.32812C21.3672 5.46875 21.4531 5.625 21.5156 5.79688C21.5938 6 21.6328 6.21875 21.6328 6.45312C21.6484 6.67188 21.6562 6.90625 21.6562 7.15625V13.5547C21.6562 13.5547 21.6562 13.5625 21.6562 13.5781C21.6562 13.5938 21.6562 13.6094 21.6562 13.625C21.5469 14.9375 21.2188 16.1172 20.6719 17.1641C20.1406 18.1953 19.4922 19.1094 18.7266 19.9062C17.9766 20.7031 17.1641 21.375 16.2891 21.9219C15.4141 22.4844 14.5859 22.9531 13.8047 23.3281C13.5859 23.4219 13.3906 23.5 13.2188 23.5625C13.0469 23.6406 12.8438 23.7031 12.6094 23.75C12.4375 23.7812 12.2344 23.7969 12 23.7969C11.7656 23.7969 11.5625 23.7812 11.3906 23.75C11.1562 23.7031 10.9531 23.6406 10.7812 23.5625C10.6094 23.5 10.4141 23.4219 10.1953 23.3281C9.41406 22.9531 8.58594 22.4844 7.71094 21.9219C6.83594 21.375 6.01562 20.7031 5.25 19.9062C4.5 19.1094 3.85938 18.1953 3.32812 17.1641C2.78125 16.1172 2.45312 14.9375 2.34375 13.625C2.34375 13.6094 2.34375 13.5938 2.34375 13.5781C2.34375 13.5625 2.34375 13.5547 2.34375 13.5547V7.15625C2.34375 6.90625 2.34375 6.67188 2.34375 6.45312C2.35938 6.21875 2.40625 6 2.48438 5.79688C2.54688 5.625 2.625 5.46875 2.71875 5.32812C2.82812 5.1875 2.95312 5.05469 3.09375 4.92969C3.25 4.78906 3.42969 4.67969 3.63281 4.60156C3.85156 4.50781 4.07812 4.42188 4.3125 4.34375L11.0156 1.97656C11.125 1.92969 11.2344 1.89063 11.3438 1.85938C11.4688 1.8125 11.5859 1.78125 11.6953 1.76562ZM17.2031 8.98438C17.0625 8.82812 16.8828 8.75 16.6641 8.75C16.4609 8.75 16.2891 8.82031 16.1484 8.96094L11.3906 13.5781C11.3438 13.625 11.2969 13.6641 11.25 13.6953C11.2188 13.7266 11.1875 13.7578 11.1562 13.7891C11.1406 13.7578 11.1094 13.7266 11.0625 13.6953C11.0312 13.6641 10.9922 13.625 10.9453 13.5781L8.85938 11.5391L8.78906 11.4922C8.64844 11.3828 8.47656 11.3359 8.27344 11.3516C8.08594 11.3516 7.92969 11.4219 7.80469 11.5625C7.66406 11.7031 7.58594 11.875 7.57031 12.0781C7.57031 12.2656 7.63281 12.4297 7.75781 12.5703L7.80469 12.6172L9.89062 14.6562C9.95312 14.7188 10.0156 14.7812 10.0781 14.8438C10.1406 14.8906 10.2031 14.9375 10.2656 14.9844C10.3281 15.0312 10.3984 15.0781 10.4766 15.125C10.5547 15.1719 10.6406 15.2188 10.7344 15.2656C10.875 15.2969 11.0156 15.3125 11.1562 15.3125C11.3125 15.3125 11.4609 15.2969 11.6016 15.2656C11.6953 15.2188 11.7812 15.1719 11.8594 15.125C11.9375 15.0781 12.0078 15.0312 12.0703 14.9844C12.1328 14.9375 12.1953 14.8906 12.2578 14.8438C12.3203 14.7812 12.375 14.7188 12.4219 14.6562L17.1797 10.0391C17.3359 9.89844 17.4141 9.72656 17.4141 9.52344C17.4141 9.30469 17.3438 9.125 17.2031 8.98438Z" fill="black"/>
</svg>
