<svg width="24" height="24" viewBox="0 0 24 24" fill="none" xmlns="http://www.w3.org/2000/svg">
<path d="M12 1.67188C13.2188 1.67188 14.3672 1.89844 15.4453 2.35156C16.5078 2.82031 17.4375 3.45312 18.2344 4.25C19.0469 5.04688 19.6797 5.98438 20.1328 7.0625C20.6016 8.14062 20.8359 9.28906 20.8359 10.5078C20.8359 11.0234 20.7891 11.5312 20.6953 12.0312C20.6172 12.5156 20.4922 12.9844 20.3203 13.4375C20.1641 13.9219 19.9609 14.3828 19.7109 14.8203C19.4609 15.2578 19.1797 15.6719 18.8672 16.0625C18.5859 16.4062 18.2109 16.8438 17.7422 17.375C17.2891 17.9219 16.7969 18.5 16.2656 19.1094C15.75 19.7031 15.2344 20.2891 14.7188 20.8672C14.2031 21.4453 13.75 21.9531 13.3594 22.3906C13 22.7969 12.5469 23 12 23C11.4531 23 11 22.7969 10.6406 22.3906C10.25 21.9531 9.79688 21.4453 9.28125 20.8672C8.76562 20.2891 8.24219 19.7031 7.71094 19.1094C7.19531 18.5 6.71094 17.9219 6.25781 17.375C5.78906 16.8438 5.41406 16.4062 5.13281 16.0625C4.82031 15.6719 4.53906 15.2578 4.28906 14.8203C4.03906 14.3828 3.83594 13.9219 3.67969 13.4375C3.50781 12.9844 3.375 12.5156 3.28125 12.0312C3.20312 11.5312 3.16406 11.0234 3.16406 10.5078C3.16406 9.28906 3.39844 8.14062 3.86719 7.0625C4.32031 5.98438 4.94531 5.04688 5.74219 4.25C6.55469 3.45312 7.49219 2.82031 8.55469 2.35156C9.63281 1.89844 10.7812 1.67188 12 1.67188ZM12 6.99219C11.0312 6.99219 10.2031 7.33594 9.51562 8.02344C8.84375 8.71094 8.50781 9.53906 8.50781 10.5078C8.50781 11.4766 8.84375 12.3047 9.51562 12.9922C10.2031 13.6641 11.0312 14 12 14C12.9688 14 13.7891 13.6641 14.4609 12.9922C15.1484 12.3047 15.4922 11.4766 15.4922 10.5078C15.4922 9.53906 15.1484 8.71094 14.4609 8.02344C13.7891 7.33594 12.9688 6.99219 12 6.99219Z" fill="black"/>
</svg>
