<svg width="24" height="24" viewBox="0 0 24 24" fill="none" xmlns="http://www.w3.org/2000/svg">
<path d="M10.7457 2.41788C11.5193 1.97145 12.4723 1.97132 13.2457 2.41788L19.7457 6.17081C20.5192 6.61743 20.9957 7.44273 20.9957 8.33585V15.8417C20.9957 16.7348 20.5192 17.5601 19.7457 18.0067L13.2457 21.7597C12.4723 22.2062 11.5193 22.2061 10.7457 21.7597L4.24573 18.0067C3.4722 17.5602 2.9958 16.7349 2.99573 15.8417V8.33585C2.9958 7.44267 3.4722 6.61741 4.24573 6.17081L6.66663 4.77237L15.8063 10.453V13.2411C15.8064 13.6874 16.1686 14.0497 16.6149 14.0497C17.0604 14.0492 17.4217 13.6886 17.4225 13.2431L17.4215 10.0048C17.4215 9.72543 17.2769 9.46481 17.0397 9.31729L8.25549 3.85538L10.7457 2.41788Z" fill="black"/>
</svg>
