<svg width="24" height="24" viewBox="0 0 24 24" fill="none" xmlns="http://www.w3.org/2000/svg">
<path d="M12 7.50781C12.6875 7.50781 13.3359 7.63281 13.9453 7.88281C14.5547 8.14844 15.0859 8.50781 15.5391 8.96094C15.9922 9.41406 16.3516 9.94531 16.6172 10.5547C16.8672 11.1641 16.9922 11.8125 16.9922 12.5C16.9922 13.1875 16.8672 13.8359 16.6172 14.4453C16.3516 15.0547 15.9922 15.5859 15.5391 16.0391C15.0859 16.4922 14.5547 16.8516 13.9453 17.1172C13.3359 17.3672 12.6875 17.4922 12 17.4922C11.3125 17.4922 10.6641 17.3672 10.0547 17.1172C9.44531 16.8516 8.91406 16.4922 8.46094 16.0391C8.00781 15.5859 7.64844 15.0547 7.38281 14.4453C7.13281 13.8359 7.00781 13.1875 7.00781 12.5C7.00781 11.8125 7.13281 11.1641 7.38281 10.5547C7.64844 9.94531 8.00781 9.41406 8.46094 8.96094C8.91406 8.50781 9.44531 8.14844 10.0547 7.88281C10.6641 7.63281 11.3125 7.50781 12 7.50781ZM14.25 1.67188C14.6562 1.67188 15.0234 1.79688 15.3516 2.04688C15.6797 2.28125 15.8984 2.59375 16.0078 2.98438L16.4766 4.48438C16.5703 4.82812 16.6875 5.16406 16.8281 5.49219C16.9688 5.80469 17.125 6.10938 17.2969 6.40625L18.3281 8.16406C18.3438 8.19531 18.3594 8.23438 18.375 8.28125C18.4062 8.3125 18.4375 8.34375 18.4688 8.375L18.5391 8.32812C18.6172 8.28125 18.6953 8.27344 18.7734 8.30469C18.8672 8.32031 18.9375 8.36719 18.9844 8.44531L19.4766 9.3125C19.5234 9.39062 19.5312 9.47656 19.5 9.57031C19.4844 9.66406 19.4375 9.73438 19.3594 9.78125L19.1953 9.875C19.3516 10.2812 19.4688 10.7031 19.5469 11.1406C19.625 11.5781 19.6641 12.0312 19.6641 12.5C19.6641 12.9531 19.625 13.3984 19.5469 13.8359C19.4688 14.2578 19.3594 14.6719 19.2188 15.0781L19.3594 15.1484C19.4375 15.1953 19.4844 15.2656 19.5 15.3594C19.5312 15.4531 19.5234 15.5391 19.4766 15.6172L18.9844 16.4844C18.9375 16.5625 18.8672 16.6172 18.7734 16.6484C18.6953 16.6641 18.6172 16.6484 18.5391 16.6016L18.4922 16.5781C18.4609 16.625 18.4297 16.6719 18.3984 16.7188C18.3828 16.75 18.3594 16.7891 18.3281 16.8359L17.2969 18.5938C17.125 18.8906 16.9688 19.2031 16.8281 19.5312C16.6875 19.8438 16.5703 20.1719 16.4766 20.5156L16.0078 22.0156C15.8984 22.4062 15.6797 22.7266 15.3516 22.9766C15.0234 23.2109 14.6562 23.3281 14.25 23.3281H9.75C9.34375 23.3281 8.97656 23.2109 8.64844 22.9766C8.32031 22.7266 8.10156 22.4062 7.99219 22.0156L7.52344 20.5156C7.42969 20.1719 7.3125 19.8438 7.17188 19.5312C7.03125 19.2031 6.875 18.8906 6.70312 18.5938L5.67188 16.8125C5.25 16.2031 4.92188 15.5312 4.6875 14.7969C4.45312 14.0625 4.33594 13.2969 4.33594 12.5C4.33594 11.7031 4.45312 10.9375 4.6875 10.2031C4.92188 9.46875 5.25 8.79688 5.67188 8.1875L6.70312 6.40625C6.875 6.10938 7.03125 5.80469 7.17188 5.49219C7.3125 5.16406 7.42969 4.82812 7.52344 4.48438L7.99219 2.98438C8.10156 2.59375 8.32031 2.28125 8.64844 2.04688C8.97656 1.79688 9.34375 1.67188 9.75 1.67188H14.25ZM11.8594 6.17188C11.5469 6.17188 11.2422 6.19531 10.9453 6.24219C10.6641 6.28906 10.3828 6.35938 10.1016 6.45312C10.0391 6.46875 9.96875 6.49219 9.89062 6.52344C9.82812 6.55469 9.76562 6.57813 9.70312 6.59375C9.4375 6.70312 9.17969 6.82812 8.92969 6.96875C8.67969 7.10938 8.4375 7.25781 8.20312 7.41406C8.20312 7.42969 8.20312 7.4375 8.20312 7.4375C8.20312 7.4375 8.19531 7.4375 8.17969 7.4375C7.92969 7.625 7.69531 7.83594 7.47656 8.07031C7.25781 8.30469 7.05469 8.54688 6.86719 8.79688C6.85156 8.8125 6.83594 8.82812 6.82031 8.84375C6.82031 8.85938 6.8125 8.875 6.79688 8.89062C6.6875 9.04688 6.58594 9.21094 6.49219 9.38281C6.39844 9.55469 6.30469 9.72656 6.21094 9.89844C6.17969 9.99219 6.14062 10.0859 6.09375 10.1797C6.0625 10.2734 6.03125 10.3672 6 10.4609C6 10.4609 6 10.4688 6 10.4844C5.89062 10.7969 5.80469 11.125 5.74219 11.4688C5.69531 11.7969 5.67188 12.1406 5.67188 12.5C5.67188 12.8438 5.69531 13.1875 5.74219 13.5312C5.80469 13.8594 5.89062 14.1875 6 14.5156C6 14.5156 6 14.5234 6 14.5391C6 14.5391 6 14.5469 6 14.5625C6.03125 14.6562 6.0625 14.75 6.09375 14.8438C6.14062 14.9219 6.17969 15.0078 6.21094 15.1016C6.38281 15.4766 6.58594 15.8281 6.82031 16.1562C7.05469 16.4844 7.32031 16.7891 7.61719 17.0703C7.63281 17.0859 7.64062 17.1016 7.64062 17.1172C7.65625 17.1172 7.66406 17.1172 7.66406 17.1172C7.97656 17.4141 8.3125 17.6797 8.67188 17.9141C9.04688 18.1328 9.4375 18.3125 9.84375 18.4531C9.89062 18.4688 9.92969 18.4844 9.96094 18.5C10.0078 18.5156 10.0547 18.5312 10.1016 18.5469C10.3828 18.6406 10.6641 18.7109 10.9453 18.7578C11.2422 18.8047 11.5469 18.8281 11.8594 18.8281C11.875 18.8281 11.8906 18.8281 11.9062 18.8281C11.9375 18.8281 11.9688 18.8281 12 18.8281C12.0312 18.8281 12.0547 18.8281 12.0703 18.8281C12.1016 18.8281 12.125 18.8281 12.1406 18.8281C12.4531 18.8281 12.75 18.8047 13.0312 18.7578C13.3281 18.6953 13.6172 18.625 13.8984 18.5469C13.9453 18.5312 13.9844 18.5156 14.0156 18.5C14.0625 18.4844 14.1094 18.4688 14.1562 18.4531C14.8125 18.2188 15.4141 17.8828 15.9609 17.4453C16.5078 17.0078 16.9688 16.5 17.3438 15.9219L17.6484 15.3594C17.7266 15.2188 17.7891 15.0781 17.8359 14.9375C17.8984 14.7969 17.9609 14.6484 18.0234 14.4922L18.0469 14.375C18.1406 14.0781 18.2109 13.7734 18.2578 13.4609C18.3047 13.1484 18.3281 12.8281 18.3281 12.5C18.3281 12.1719 18.3047 11.8516 18.2578 11.5391C18.2109 11.2266 18.1406 10.9219 18.0469 10.625L18.0234 10.5078C17.8047 9.88281 17.5078 9.3125 17.1328 8.79688C16.7578 8.26562 16.3125 7.8125 15.7969 7.4375C15.2812 7.04688 14.7188 6.74219 14.1094 6.52344C13.4844 6.30469 12.8281 6.1875 12.1406 6.17188C12.125 6.17188 12.1016 6.17188 12.0703 6.17188C12.0547 6.17188 12.0312 6.17188 12 6.17188C11.9688 6.17188 11.9375 6.17188 11.9062 6.17188C11.8906 6.17188 11.875 6.17188 11.8594 6.17188Z" fill="black"/>
</svg>
