<svg width="24" height="24" viewBox="0 0 24 24" fill="none" xmlns="http://www.w3.org/2000/svg">
<path d="M17.5078 2.96094C18.3359 2.96094 19.0391 3.25781 19.6172 3.85156C20.2109 4.42969 20.5078 5.13281 20.5078 5.96094V20.5391C20.5078 20.9141 20.3516 21.2109 20.0391 21.4297C19.7266 21.6328 19.3984 21.6641 19.0547 21.5234L12 18.8281L4.94531 21.5234C4.60156 21.6641 4.27344 21.6328 3.96094 21.4297C3.64844 21.2109 3.49219 20.9141 3.49219 20.5391V5.96094C3.49219 5.13281 3.78125 4.42969 4.35938 3.85156C4.95312 3.25781 5.66406 2.96094 6.49219 2.96094H17.5078ZM12 7.50781C11.9531 7.50781 11.8984 7.51563 11.8359 7.53125C11.7891 7.54687 11.7422 7.57031 11.6953 7.60156C11.6484 7.63281 11.6016 7.67188 11.5547 7.71875C11.5234 7.75 11.5 7.78906 11.4844 7.83594L10.5703 9.78125L8.50781 10.1094C8.44531 10.1094 8.38281 10.125 8.32031 10.1562C8.25781 10.1875 8.20312 10.2266 8.15625 10.2734L8.13281 10.3203C8.08594 10.3828 8.04688 10.4531 8.01562 10.5312C8 10.5938 7.99219 10.6641 7.99219 10.7422C8.00781 10.8203 8.03125 10.8906 8.0625 10.9531C8.09375 11.0156 8.13281 11.0781 8.17969 11.1406L9.67969 12.6406L9.30469 14.7969C9.30469 14.8594 9.30469 14.9219 9.30469 14.9844C9.32031 15.0469 9.34375 15.1094 9.375 15.1719L9.39844 15.2188C9.42969 15.2812 9.47656 15.3359 9.53906 15.3828C9.60156 15.4297 9.66406 15.4609 9.72656 15.4766C9.80469 15.4922 9.875 15.5 9.9375 15.5C10.0156 15.4844 10.0859 15.4609 10.1484 15.4297L12 14.4219L13.8516 15.4297C13.8984 15.4609 13.9531 15.4844 14.0156 15.5C14.0781 15.5 14.1406 15.5 14.2031 15.5L14.25 15.4766C14.3281 15.4609 14.3906 15.4297 14.4375 15.3828C14.5 15.3359 14.5547 15.2812 14.6016 15.2188C14.6328 15.1562 14.6562 15.0938 14.6719 15.0312C14.6875 14.9531 14.6953 14.875 14.6953 14.7969L14.3203 12.6406L15.8203 11.1406C15.8672 11.0938 15.9062 11.0391 15.9375 10.9766C15.9688 10.9141 15.9844 10.8516 15.9844 10.7891L16.0078 10.7422C16.0078 10.5859 15.9609 10.4453 15.8672 10.3203C15.7734 10.1953 15.6484 10.125 15.4922 10.1094L13.4297 9.78125L12.5156 7.83594C12.5 7.78906 12.4688 7.75 12.4219 7.71875C12.3906 7.67188 12.3516 7.63281 12.3047 7.60156C12.2578 7.57031 12.2031 7.54687 12.1406 7.53125C12.0938 7.51563 12.0469 7.50781 12 7.50781Z" fill="black"/>
</svg>
