<svg width="24" height="24" viewBox="0 0 24 24" fill="none" xmlns="http://www.w3.org/2000/svg">
<path d="M12.6562 1.67188C12.7031 1.67188 12.7422 1.67188 12.7734 1.67188C12.8203 1.67188 12.8672 1.67188 12.9141 1.67188V7.50781C12.9141 8.07031 13.1172 8.5625 13.5234 8.98438C13.9297 9.39062 14.4219 9.59375 15 9.59375H20.8359C20.8359 9.65625 20.8359 9.72656 20.8359 9.80469C20.8359 9.88281 20.8359 9.96094 20.8359 10.0391V18.7578C20.8359 19.0859 20.8359 19.3828 20.8359 19.6484C20.8359 19.9141 20.8203 20.1562 20.7891 20.375C20.7734 20.5938 20.7422 20.8047 20.6953 21.0078C20.6484 21.2109 20.5781 21.4062 20.4844 21.5938C20.3281 21.9062 20.1328 22.1797 19.8984 22.4141C19.6641 22.6484 19.3984 22.8438 19.1016 23C18.9141 23.0938 18.7109 23.1641 18.4922 23.2109C18.2891 23.2578 18.0781 23.2891 17.8594 23.3047C17.6562 23.3203 17.4219 23.3281 17.1562 23.3281C16.8906 23.3281 16.5938 23.3281 16.2656 23.3281H7.73438C7.40625 23.3281 7.10938 23.3281 6.84375 23.3281C6.57812 23.3281 6.34375 23.3203 6.14062 23.3047C5.92188 23.2891 5.70312 23.2578 5.48438 23.2109C5.28125 23.1641 5.08594 23.0938 4.89844 23C4.60156 22.8438 4.33594 22.6484 4.10156 22.4141C3.86719 22.1797 3.67188 21.9062 3.51562 21.5938C3.42188 21.4062 3.35156 21.2109 3.30469 21.0078C3.25781 20.8047 3.22656 20.5938 3.21094 20.375C3.19531 20.2031 3.17969 20.0234 3.16406 19.8359C3.16406 19.6484 3.16406 19.4453 3.16406 19.2266V6.24219C3.16406 5.91406 3.16406 5.61719 3.16406 5.35156C3.16406 5.08594 3.17969 4.84375 3.21094 4.625C3.22656 4.40625 3.25781 4.19531 3.30469 3.99219C3.35156 3.78906 3.42188 3.59375 3.51562 3.40625C3.67188 3.10938 3.86719 2.84375 4.10156 2.60938C4.33594 2.35938 4.60156 2.16406 4.89844 2.02344C5.08594 1.91406 5.28125 1.83594 5.48438 1.78906C5.70312 1.74219 5.92188 1.71094 6.14062 1.69531C6.34375 1.67969 6.57812 1.67188 6.84375 1.67188C7.10938 1.67188 7.40625 1.67188 7.73438 1.67188H12.6562ZM8.67188 16.7422C8.46875 16.7422 8.28906 16.8203 8.13281 16.9766C7.99219 17.1172 7.92188 17.2891 7.92188 17.4922C7.92188 17.7109 7.99219 17.8906 8.13281 18.0312C8.28906 18.1719 8.46875 18.2422 8.67188 18.2422H15.4219C15.6094 18.2266 15.7656 18.1484 15.8906 18.0078C16.0156 17.8672 16.0781 17.6953 16.0781 17.4922C16.0781 17.3047 16.0156 17.1406 15.8906 17C15.7656 16.8594 15.6094 16.7734 15.4219 16.7422H15.3281H8.67188ZM8.67188 12.7578C8.46875 12.7578 8.28906 12.8281 8.13281 12.9688C7.99219 13.1094 7.92188 13.2891 7.92188 13.5078C7.92188 13.7109 7.99219 13.8906 8.13281 14.0469C8.28906 14.1875 8.46875 14.2578 8.67188 14.2578H13.0078C13.2109 14.2578 13.3828 14.1875 13.5234 14.0469C13.6797 13.8906 13.7578 13.7109 13.7578 13.5078C13.7578 13.2891 13.6797 13.1094 13.5234 12.9688C13.3828 12.8281 13.2109 12.7578 13.0078 12.7578H8.67188ZM19.9688 7.95312C19.9844 7.96875 20 7.99219 20.0156 8.02344C20.0469 8.03906 20.0703 8.0625 20.0859 8.09375H15C14.8438 8.09375 14.7031 8.03906 14.5781 7.92969C14.4688 7.80469 14.4141 7.66406 14.4141 7.50781V2.39844L19.9688 7.95312Z" fill="black"/>
</svg>
