<svg width="24" height="24" viewBox="0 0 24 24" fill="none" xmlns="http://www.w3.org/2000/svg">
<path d="M8.01562 3.5C8.57812 3.15625 9.17188 3.08594 9.79688 3.28906C10.4219 3.47656 10.8672 3.875 11.1328 4.48438L11.8125 6.05469C11.9531 6.35156 12.1484 6.60156 12.3984 6.80469C12.6641 6.99219 12.9609 7.10938 13.2891 7.15625L15.0703 7.34375C15.5547 7.40625 15.9531 7.625 16.2656 8C16.5781 8.35938 16.7188 8.78125 16.6875 9.26562L16.5234 12.6875L22.4531 18.9453C22.875 19.3828 23.0312 19.9141 22.9219 20.5391C22.8125 21.1641 22.4219 21.5781 21.75 21.7812C21.2969 21.9219 20.7422 22.0547 20.0859 22.1797C19.4453 22.2891 18.75 22.3438 18 22.3438C17.875 22.3281 17.75 22.3203 17.625 22.3203C17.5156 22.3203 17.3984 22.3125 17.2734 22.2969C16.3828 22.2344 15.5391 22.0469 14.7422 21.7344C13.9453 21.4062 13.1875 21.0078 12.4688 20.5391C11.7656 20.0703 11.0938 19.5547 10.4531 18.9922C9.8125 18.4141 9.21094 17.8359 8.64844 17.2578L2.48438 10.9297C1.84375 10.2891 1.57812 9.51562 1.6875 8.60938C1.8125 7.70313 2.26562 7.01562 3.04688 6.54688L8.01562 3.5Z" fill="black"/>
</svg>
