<svg width="24" height="24" viewBox="0 0 24 24" fill="none" xmlns="http://www.w3.org/2000/svg">
<path d="M12 13.6719C13.2969 13.6719 14.5234 13.8125 15.6797 14.0938C16.8516 14.375 17.8828 14.7656 18.7734 15.2656C19.6484 15.7656 20.375 16.3828 20.9531 17.1172C21.5469 17.8516 21.8438 18.6797 21.8438 19.6016C21.8438 20.3516 21.5703 21 21.0234 21.5469C20.4922 22.0781 19.8516 22.3438 19.1016 22.3438H4.89844C4.14844 22.3438 3.5 22.0781 2.95312 21.5469C2.42188 21 2.15625 20.3516 2.15625 19.6016C2.15625 18.6797 2.44531 17.8516 3.02344 17.1172C3.61719 16.3828 4.35156 15.7656 5.22656 15.2656C6.11719 14.7656 7.14062 14.375 8.29688 14.0938C9.46875 13.8125 10.7031 13.6719 12 13.6719ZM11.8359 2.32812C12.4766 2.32812 13.0781 2.45313 13.6406 2.70312C14.2188 2.95312 14.7188 3.28906 15.1406 3.71094C15.5625 4.13281 15.8906 4.625 16.125 5.1875C16.375 5.75 16.5 6.35156 16.5 6.99219C16.5 7.64844 16.375 8.25781 16.125 8.82031C15.8906 9.38281 15.5625 9.875 15.1406 10.2969C14.7188 10.7188 14.2188 11.0547 13.6406 11.3047C13.0781 11.5391 12.4766 11.6562 11.8359 11.6562C11.1953 11.6562 10.5859 11.5391 10.0078 11.3047C9.44531 11.0547 8.95312 10.7188 8.53125 10.2969C8.10938 9.875 7.77344 9.38281 7.52344 8.82031C7.28906 8.25781 7.17188 7.64844 7.17188 6.99219C7.17188 6.35156 7.28906 5.75 7.52344 5.1875C7.77344 4.625 8.10938 4.13281 8.53125 3.71094C8.95312 3.28906 9.44531 2.95312 10.0078 2.70312C10.5859 2.45313 11.1953 2.32812 11.8359 2.32812Z" fill="black"/>
</svg>
