<svg width="24" height="24" viewBox="0 0 24 24" fill="none" xmlns="http://www.w3.org/2000/svg">
<path d="M12 2.65625C13.3594 2.65625 14.6328 2.91406 15.8203 3.42969C17.0234 3.94531 18.0703 4.64844 18.9609 5.53906C19.8516 6.42969 20.5547 7.47656 21.0703 8.67969C21.5859 9.86719 21.8438 11.1406 21.8438 12.5C21.8438 13.8594 21.5859 15.1328 21.0703 16.3203C20.5547 17.5234 19.8516 18.5703 18.9609 19.4609C18.0703 20.3516 17.0234 21.0547 15.8203 21.5703C14.6328 22.0859 13.3594 22.3438 12 22.3438H3.70312C3.28125 22.3438 2.91406 22.1953 2.60156 21.8984C2.30469 21.5859 2.15625 21.2188 2.15625 20.7969V12.5C2.15625 11.1406 2.41406 9.86719 2.92969 8.67969C3.44531 7.47656 4.14844 6.42969 5.03906 5.53906C5.92969 4.64844 6.97656 3.94531 8.17969 3.42969C9.36719 2.91406 10.6406 2.65625 12 2.65625ZM7.66406 11.1641C7.30469 11.1641 6.99219 11.2969 6.72656 11.5625C6.46094 11.8125 6.32812 12.125 6.32812 12.5C6.32812 12.875 6.46094 13.1953 6.72656 13.4609C6.99219 13.7109 7.30469 13.8359 7.66406 13.8359C8.03906 13.8359 8.35156 13.7109 8.60156 13.4609C8.86719 13.1953 9 12.875 9 12.5C9 12.125 8.86719 11.8125 8.60156 11.5625C8.35156 11.2969 8.03906 11.1641 7.66406 11.1641ZM12 11.1641C11.625 11.1641 11.3047 11.2969 11.0391 11.5625C10.7891 11.8125 10.6641 12.125 10.6641 12.5C10.6641 12.875 10.7891 13.1953 11.0391 13.4609C11.3047 13.7109 11.625 13.8359 12 13.8359C12.375 13.8359 12.6875 13.7109 12.9375 13.4609C13.2031 13.1953 13.3359 12.875 13.3359 12.5C13.3359 12.125 13.2031 11.8125 12.9375 11.5625C12.6875 11.2969 12.375 11.1641 12 11.1641ZM16.3359 11.1641C15.9609 11.1641 15.6406 11.2969 15.375 11.5625C15.125 11.8125 15 12.125 15 12.5C15 12.875 15.125 13.1953 15.375 13.4609C15.6406 13.7109 15.9609 13.8359 16.3359 13.8359C16.6953 13.8359 17.0078 13.7109 17.2734 13.4609C17.5391 13.1953 17.6719 12.875 17.6719 12.5C17.6719 12.125 17.5391 11.8125 17.2734 11.5625C17.0078 11.2969 16.6953 11.1641 16.3359 11.1641Z" fill="black"/>
</svg>
