<svg width="24" height="24" viewBox="0 0 24 24" fill="none" xmlns="http://www.w3.org/2000/svg">
<path d="M21.0469 20.8203C20.9375 21.5078 20.7109 21.9766 20.3672 22.2266C20.0234 22.4609 19.6172 22.5469 19.1484 22.4844L19.0547 22.4609L18.7969 22.4141L18.5625 22.3672L18.3516 22.3438L18.1406 22.2969L17.9531 22.25L17.8125 22.2266L17.5547 22.1562L17.2031 22.0625L16.9219 21.9922C16.875 21.9766 16.8281 21.9609 16.7812 21.9453C16.7344 21.9297 16.6875 21.9219 16.6406 21.9219L16.4766 21.8516L16.2656 21.8047L16.1484 21.7578L15.9609 21.6875C15.9141 21.6719 15.8594 21.6562 15.7969 21.6406C15.75 21.625 15.7031 21.6094 15.6562 21.5938L15.4922 21.5234L15.2812 21.4531L15.1641 21.4062L14.9766 21.3359C14.9297 21.3047 14.8828 21.2812 14.8359 21.2656C14.7891 21.25 14.7422 21.2266 14.6953 21.1953L14.6016 21.1719C14.2734 21.0312 13.9453 20.8906 13.6172 20.75C13.3047 20.5938 12.9922 20.4297 12.6797 20.2578L12.4219 20.1172C12.3438 20.0703 12.2656 20.0312 12.1875 20C12.125 19.9531 12.0625 19.9141 12 19.8828L11.7891 19.7422C11.6016 19.6328 11.4141 19.5234 11.2266 19.4141C11.0547 19.2891 10.8828 19.1641 10.7109 19.0391L10.4531 18.8516C10.3438 18.7734 10.2344 18.6953 10.125 18.6172C10.0312 18.5391 9.92969 18.4531 9.82031 18.3594C9.74219 18.3125 9.67188 18.2656 9.60938 18.2188C9.54688 18.1562 9.47656 18.0938 9.39844 18.0312L9.1875 17.8438C9.10938 17.7812 9.03125 17.7188 8.95312 17.6562C8.89062 17.5938 8.82031 17.5312 8.74219 17.4688L8.53125 17.2578C8.46875 17.1953 8.39844 17.1328 8.32031 17.0703C8.25781 17.0078 8.19531 16.9453 8.13281 16.8828L8.0625 16.7891C8 16.7266 7.9375 16.6719 7.875 16.625C7.82812 16.5625 7.77344 16.5 7.71094 16.4375L7.54688 16.2734C7.5 16.2109 7.44531 16.1484 7.38281 16.0859C7.33594 16.0234 7.28906 15.9609 7.24219 15.8984L7.07812 15.7344C7.01562 15.6562 6.95312 15.5781 6.89062 15.5C6.82812 15.4219 6.76562 15.3516 6.70312 15.2891L6.49219 15.0312C6.41406 14.9219 6.33594 14.8125 6.25781 14.7031C6.17969 14.5938 6.10156 14.4844 6.02344 14.375C5.97656 14.3125 5.92188 14.25 5.85938 14.1875C5.8125 14.1094 5.76562 14.0312 5.71875 13.9531L5.57812 13.7422C5.51562 13.6641 5.46094 13.5859 5.41406 13.5078C5.36719 13.4141 5.3125 13.3203 5.25 13.2266L5.08594 12.9453L4.94531 12.7109L4.75781 12.3594C4.72656 12.3125 4.69531 12.2656 4.66406 12.2188C4.63281 12.1562 4.60156 12.1016 4.57031 12.0547L4.47656 11.8672C4.44531 11.7891 4.40625 11.7109 4.35938 11.6328C4.3125 11.5391 4.26562 11.4453 4.21875 11.3516L4.10156 11.0703C4.07031 10.9922 4.03125 10.9141 3.98438 10.8359C3.95312 10.7578 3.92188 10.6797 3.89062 10.6016L3.79688 10.3672C3.75 10.2422 3.70312 10.125 3.65625 10.0156C3.60938 9.89062 3.5625 9.76562 3.51562 9.64062L3.46875 9.52344C3.42188 9.39844 3.375 9.26562 3.32812 9.125C3.28125 8.98438 3.23438 8.85156 3.1875 8.72656C3.1875 8.72656 3.1875 8.71875 3.1875 8.70312C3.15625 8.57812 3.11719 8.44531 3.07031 8.30469C3.02344 8.16406 2.98438 8.02344 2.95312 7.88281C2.92188 7.77344 2.89062 7.67188 2.85938 7.57812C2.84375 7.46875 2.82031 7.35937 2.78906 7.25L2.76562 7.08594C2.75 7.00781 2.72656 6.92188 2.69531 6.82812C2.67969 6.73438 2.66406 6.64844 2.64844 6.57031L2.625 6.45312L2.55469 6.10156L2.50781 5.91406V5.89062L2.46094 5.70312L2.4375 5.51562L2.36719 5.11719C2.28906 4.61719 2.36719 4.1875 2.60156 3.82812C2.83594 3.46875 3.29688 3.23437 3.98438 3.125C4.46875 3.04687 4.95312 2.98438 5.4375 2.9375C5.92188 2.89062 6.41406 2.85937 6.91406 2.84375C7.21094 2.82813 7.5 2.90625 7.78125 3.07812C8.0625 3.25 8.3125 3.54688 8.53125 3.96875C8.57812 4.0625 8.61719 4.15625 8.64844 4.25C8.69531 4.34375 8.74219 4.4375 8.78906 4.53125L8.88281 4.76562L9.02344 5.09375L9.375 5.9375L9.44531 6.10156C9.47656 6.17969 9.50781 6.25781 9.53906 6.33594C9.57031 6.39844 9.60156 6.45312 9.63281 6.5C9.77344 6.79687 9.8125 7.17187 9.75 7.625C9.6875 8.07812 9.5 8.47656 9.1875 8.82031L9.07031 8.9375L8.90625 9.10156L8.78906 9.24219L8.67188 9.38281C8.45312 9.64844 8.24219 9.94531 8.03906 10.2734C7.83594 10.5859 7.72656 10.8828 7.71094 11.1641C7.71094 11.1797 7.71094 11.1953 7.71094 11.2109C7.71094 11.2266 7.71094 11.2422 7.71094 11.2578V11.3984C7.71094 11.4141 7.71094 11.4375 7.71094 11.4688C7.71094 11.5 7.71875 11.5312 7.73438 11.5625C7.73438 11.5938 7.73438 11.6172 7.73438 11.6328C7.73438 11.6484 7.74219 11.6719 7.75781 11.7031C8.39844 12.7344 9.13281 13.6875 9.96094 14.5625C10.8047 15.4375 11.7266 16.2109 12.7266 16.8828L12.8906 17C12.9062 17.0156 12.9141 17.0234 12.9141 17.0234C12.9141 17.0234 12.9219 17.0234 12.9375 17.0234L12.9844 17.0469H13.0312C13.0469 17.0469 13.0547 17.0469 13.0547 17.0469C13.0703 17.0469 13.0859 17.0469 13.1016 17.0469L13.1719 17.0234H13.1953C13.2109 17.0234 13.2266 17.0234 13.2422 17.0234C13.2578 17.0234 13.2734 17.0234 13.2891 17.0234L13.3359 17H13.3828C13.3984 16.9844 13.4141 16.9766 13.4297 16.9766C13.4453 16.9766 13.4531 16.9766 13.4531 16.9766C13.4688 16.9609 13.4844 16.9531 13.5 16.9531C13.5312 16.9531 13.5547 16.9453 13.5703 16.9297L13.6406 16.9062C13.6562 16.8906 13.6719 16.8828 13.6875 16.8828C13.7031 16.8672 13.7188 16.8594 13.7344 16.8594L13.7812 16.8359L13.8281 16.8125C13.8438 16.8125 13.8594 16.8125 13.875 16.8125C13.8906 16.7969 13.9062 16.7812 13.9219 16.7656L13.9688 16.7422L14.1094 16.6484L14.2031 16.6016C14.2344 16.5859 14.2578 16.5703 14.2734 16.5547C14.3047 16.5234 14.3359 16.5 14.3672 16.4844L14.4609 16.4141L14.5078 16.3906L14.625 16.2734L14.7656 16.1797L14.9062 16.0625L15.0234 15.9453L15.1875 15.8047L15.3047 15.6875L15.4219 15.5703C15.7656 15.2422 16.1641 15.0469 16.6172 14.9844C17.0703 14.9219 17.4375 14.9609 17.7188 15.1016L17.7891 15.1484L17.9297 15.2188L18.0938 15.2891L18.2812 15.3594L19.1016 15.7109L19.3125 15.8047L19.5469 15.8984C19.6562 15.9609 19.7656 16.0156 19.875 16.0625C19.9844 16.1094 20.0938 16.1641 20.2031 16.2266C20.625 16.4297 20.9219 16.6797 21.0938 16.9766C21.2656 17.2734 21.3438 17.5703 21.3281 17.8672C21.3125 18.3672 21.2812 18.8672 21.2344 19.3672C21.1875 19.8516 21.125 20.3359 21.0469 20.8203Z" fill="black"/>
</svg>
