<svg width="24" height="24" viewBox="0 0 24 24" fill="none" xmlns="http://www.w3.org/2000/svg">
<path d="M22.8281 8.23438V16.7656C22.8281 17.0938 22.8281 17.3906 22.8281 17.6562C22.8281 17.9219 22.8203 18.1562 22.8047 18.3594C22.7891 18.5781 22.7578 18.7969 22.7109 19.0156C22.6641 19.2188 22.5859 19.4141 22.4766 19.6016C22.3359 19.8984 22.1484 20.1641 21.9141 20.3984C21.6797 20.6328 21.4062 20.8281 21.0938 20.9844C20.9062 21.0781 20.7109 21.1484 20.5078 21.1953C20.3047 21.2422 20.0938 21.2734 19.875 21.2891C19.7031 21.3047 19.5234 21.3203 19.3359 21.3359C19.1484 21.3359 18.9453 21.3359 18.7266 21.3359H5.74219C5.41406 21.3359 5.11719 21.3359 4.85156 21.3359C4.58594 21.3359 4.34375 21.3203 4.125 21.2891C3.90625 21.2734 3.69531 21.2422 3.49219 21.1953C3.28906 21.1484 3.09375 21.0781 2.90625 20.9844C2.59375 20.8281 2.32031 20.6328 2.08594 20.3984C1.85156 20.1641 1.66406 19.8984 1.52344 19.6016C1.41406 19.4141 1.33594 19.2188 1.28906 19.0156C1.24219 18.7969 1.21094 18.5781 1.19531 18.3594C1.17969 18.1562 1.17188 17.9219 1.17188 17.6562C1.17188 17.3906 1.17188 17.0938 1.17188 16.7656V8.21094L9.70312 13.1562C10.0312 13.3438 10.3125 13.5 10.5469 13.625C10.7969 13.75 11.0469 13.8438 11.2969 13.9062C11.5156 13.9375 11.7266 13.9531 11.9297 13.9531C12.1484 13.9531 12.3594 13.9375 12.5625 13.9062C12.8125 13.8438 13.0625 13.75 13.3125 13.625C13.5625 13.5 13.8438 13.3438 14.1562 13.1562L22.8281 8.14062C22.8281 8.15625 22.8281 8.17188 22.8281 8.1875C22.8281 8.20312 22.8281 8.21875 22.8281 8.23438ZM18.2578 3.66406C18.5859 3.66406 18.8828 3.66406 19.1484 3.66406C19.4141 3.66406 19.6562 3.67969 19.875 3.71094C20.0938 3.72656 20.3047 3.75781 20.5078 3.80469C20.7109 3.85156 20.9062 3.92188 21.0938 4.01562C21.4062 4.17187 21.6797 4.36719 21.9141 4.60156C22.1484 4.83594 22.3359 5.10156 22.4766 5.39844C22.5703 5.57031 22.6406 5.75 22.6875 5.9375C22.7344 6.125 22.7656 6.32031 22.7812 6.52344L13.4531 11.9141C13.0938 12.1172 12.8359 12.2578 12.6797 12.3359C12.5234 12.4141 12.3906 12.4688 12.2812 12.5C12.1719 12.5156 12.0547 12.5234 11.9297 12.5234C11.8203 12.5234 11.7109 12.5156 11.6016 12.5C11.4922 12.4688 11.3594 12.4141 11.2031 12.3359C11.0469 12.2578 10.7891 12.1172 10.4297 11.9141L1.19531 6.59375C1.22656 6.375 1.25781 6.17188 1.28906 5.98438C1.33594 5.78125 1.41406 5.58594 1.52344 5.39844C1.66406 5.10156 1.85156 4.83594 2.08594 4.60156C2.32031 4.36719 2.59375 4.17187 2.90625 4.01562C3.09375 3.92188 3.28906 3.85156 3.49219 3.80469C3.69531 3.75781 3.90625 3.72656 4.125 3.71094C4.34375 3.67969 4.58594 3.66406 4.85156 3.66406C5.11719 3.66406 5.41406 3.66406 5.74219 3.66406H18.2578Z" fill="black"/>
</svg>
