<svg width="24" height="24" viewBox="0 0 24 24" fill="none" xmlns="http://www.w3.org/2000/svg">
<path d="M20.25 3.05C20.4926 3.05 20.7005 3.13634 20.8737 3.30902C21.0538 3.4886 21.1438 3.69835 21.1438 3.9375V16.05C21.1438 16.6857 20.9954 17.2708 20.6988 17.8055C20.4021 18.3402 19.9992 18.7644 19.4899 19.0781C18.9807 19.3856 18.4183 19.5394 17.8027 19.5394C17.1934 19.5394 16.6402 19.3856 16.1433 19.0781C15.6465 18.7644 15.253 18.3402 14.9628 17.8055C14.6788 17.2708 14.5368 16.6857 14.5368 16.05C14.5368 15.4143 14.6788 14.8323 14.9628 14.3038C15.253 13.7691 15.6465 13.3449 16.1433 13.0312C16.6402 12.7175 17.1934 12.5606 17.8027 12.5606C18.2938 12.5606 18.7562 12.6647 19.1897 12.8728V6.19697L9.53906 8.24659V19.05C9.53906 19.6857 9.39062 20.2708 9.09375 20.8055C8.79688 21.3402 8.39355 21.7644 7.88379 22.0781C7.38027 22.3856 6.81771 22.5394 6.19609 22.5394C5.58072 22.5394 5.02734 22.3856 4.53594 22.0781C4.03906 21.7644 3.63574 21.3402 3.32598 20.8055C3.03516 20.2708 2.88965 19.6857 2.88965 19.05C2.88965 18.4143 3.03516 17.8323 3.32598 17.3038C3.63574 16.7691 4.03906 16.3449 4.53594 16.0312C5.02734 15.7175 5.58072 15.5606 6.19609 15.5606C6.68584 15.5606 7.14746 15.6647 7.58105 15.8728V5.5313C7.58105 5.32255 7.64453 5.13411 7.77148 4.96599C7.90527 4.79161 8.07812 4.68374 8.29004 4.64236L19.834 2.21173C19.9111 2.19297 19.9974 2.18359 20.093 2.18359C20.1817 2.18359 20.2604 2.19453 20.3293 2.2164C20.3985 2.23906 20.4693 2.27655 20.5417 2.32886C20.6208 2.38821 20.6851 2.45782 20.7346 2.5377C20.7846 2.61837 20.8168 2.72077 20.8433 2.83581C20.8687 2.94588 20.876 3.0114 20.8639 3.05" fill="black"/>
</svg>
